HIERARCHY
ROOT Hips
{
	OFFSET 0.000000 0.000000 0.000000
	CHANNELS 6 Xposition Yposition Zposition Xrotation Yrotation Zrotation
	JOINT LeftUpLeg_virtual
	{
		OFFSET 0.000000 0.000000 0.000000
		CHANNELS 3 Xrotation Yrotation Zrotation
		JOINT LeftUpLeg
		{
			OFFSET 10.205400 -3.823500 0.155100
			CHANNELS 3 Xrotation Yrotation Zrotation
			JOINT LeftLeg
			{
				OFFSET 0.708757 -12.982077 0.567790
				CHANNELS 3 Xrotation Yrotation Zrotation
				JOINT LeftFoot
				{
					OFFSET -0.708756 -10.717838 -2.184338
					CHANNELS 3 Xrotation Yrotation Zrotation
					JOINT LeftToeBase
					{
						OFFSET 0.108149 -7.191104 7.560241
						CHANNELS 3 Xrotation Yrotation Zrotation
						JOINT LeftToe_End
						{
							OFFSET 0.070230 0.081724 4.490308
							CHANNELS 3 Xrotation Yrotation Zrotation
							End Site
							{
								OFFSET 0 0 0
							}
						}
					}
				}
			}
		}
	}
	JOINT RightUpLeg_virtual
	{
		OFFSET 0.000000 0.000000 0.000000
		CHANNELS 3 Xrotation Yrotation Zrotation
		JOINT RightUpLeg
		{
			OFFSET -10.205400 -3.823500 0.005500
			CHANNELS 3 Xrotation Yrotation Zrotation
			JOINT RightLeg
			{
				OFFSET -0.708756 -12.982134 0.610632
				CHANNELS 3 Xrotation Yrotation Zrotation
				JOINT RightFoot
				{
					OFFSET 0.708754 -10.717769 -1.945823
					CHANNELS 3 Xrotation Yrotation Zrotation
					JOINT RightToeBase
					{
						OFFSET -0.108140 -7.191069 7.372968
						CHANNELS 3 Xrotation Yrotation Zrotation
						JOINT RightToe_End
						{
							OFFSET -0.070227 0.081735 4.479403
							CHANNELS 3 Xrotation Yrotation Zrotation
							End Site
							{
								OFFSET 0 0 0
							}
						}
					}
				}
			}
		}
	}
	JOINT Spine_virtual
	{
		OFFSET 0.000000 0.000000 0.000000
		CHANNELS 3 Xrotation Yrotation Zrotation
		JOINT Spine
		{
			OFFSET 0.000000 6.876099 0.125700
			CHANNELS 3 Xrotation Yrotation Zrotation
			JOINT Spine1
			{
				OFFSET 0.000000 5.730043 0.104720
				CHANNELS 3 Xrotation Yrotation Zrotation
				JOINT Spine1_split
				{
					OFFSET 0.000000 5.730043 0.104720
					CHANNELS 3 Xrotation Yrotation Zrotation
					JOINT Spine2
					{
						OFFSET 0.000000 5.730043 0.104720
						CHANNELS 3 Xrotation Yrotation Zrotation
						JOINT Neck_virtual
						{
							OFFSET 0.000000 0.000000 0.000000
							CHANNELS 3 Xrotation Yrotation Zrotation
							JOINT Neck
							{
								OFFSET 0.000000 10.314075 0.188496
								CHANNELS 3 Xrotation Yrotation Zrotation
								JOINT Head
								{
									OFFSET 0.000000 7.643700 -2.377400
									CHANNELS 3 Xrotation Yrotation Zrotation
									JOINT HeadTop_End
									{
										OFFSET 0.000000 43.788605 -13.619600
										CHANNELS 3 Xrotation Yrotation Zrotation
										End Site
										{
											OFFSET 0 0 0
										}
									}
								}
							}
						}
						JOINT LeftShoulder_virtual
						{
							OFFSET 0.000000 0.000000 0.000000
							CHANNELS 3 Xrotation Yrotation Zrotation
							JOINT LeftShoulder
							{
								OFFSET 2.196100 4.412489 0.087492
								CHANNELS 3 Xrotation Yrotation Zrotation
								JOINT LeftShoulder_split
								{
									OFFSET 2.196100 4.412489 0.087492
									CHANNELS 3 Xrotation Yrotation Zrotation
									JOINT LeftArm
									{
										OFFSET 8.771219 -2.981674 -0.026999
										CHANNELS 3 Xrotation Yrotation Zrotation
										JOINT LeftForeArm
										{
											OFFSET 8.512804 0.000000 -0.000000
											CHANNELS 3 Xrotation Yrotation Zrotation
											JOINT LeftHand
											{
												OFFSET 18.484802 0.000000 -0.000000
												CHANNELS 3 Xrotation Yrotation Zrotation
												End Site
												{
													OFFSET 0 0 0
												}
											}
										}
									}
								}
							}
						}
						JOINT RightShoulder_virtual
						{
							OFFSET 0.000000 0.000000 0.000000
							CHANNELS 3 Xrotation Yrotation Zrotation
							JOINT RightShoulder
							{
								OFFSET -2.196100 4.412496 0.070690
								CHANNELS 3 Xrotation Yrotation Zrotation
								JOINT RightShoulder_split
								{
									OFFSET -2.196100 4.412496 0.070690
									CHANNELS 3 Xrotation Yrotation Zrotation
									JOINT RightArm
									{
										OFFSET -8.771282 -2.981682 -0.094208
										CHANNELS 3 Xrotation Yrotation Zrotation
										JOINT RightForeArm
										{
											OFFSET -8.494598 0.000000 0.000000
											CHANNELS 3 Xrotation Yrotation Zrotation
											JOINT RightHand
											{
												OFFSET -18.483803 0.000000 0.000001
												CHANNELS 3 Xrotation Yrotation Zrotation
												End Site
												{
													OFFSET 0 0 0
												}
											}
										}
									}
								}
							}
						}
					}
				}
			}
		}
	}
}
MOTION
Frames: 9
Frame Time: 0.03333333
-0.285459 28.256241 0.253204 0.000000 0.000000 0.000000 1.208703 -61.473116 4.960833 -35.155038 7.528521 32.015491 45.489166 -10.316866 -10.705959 -11.459601 -1.178323 -13.029378 0.454286 0.821179 0.819232 0.000000 0.000000 0.000000 -1.531581 -60.891983 3.814028 -28.744038 -5.837499 -36.259241 52.907827 8.353357 -5.004970 -27.913733 -3.280059 29.214703 2.862976 0.105377 -0.328801 0.000000 0.000000 0.000000 -0.703579 -61.109491 2.738051 12.267645 2.036040 -2.773422 8.141013 0.749513 -5.639041 0.176283 -0.354261 1.096385 0.000000 0.000000 0.000000 7.988430 0.324210 -4.365918 -21.029765 21.115583 9.731812 3.557145 27.426285 -2.490989 0.000000 0.000000 0.000000 9.692389 0.267355 -4.982771 -5.192025 -16.300960 -1.597699 -1.937388 -3.757926 1.227271 -23.979717 9.287629 -32.727343 4.204692 -42.110561 0.520411 0.000000 0.000000 0.000000 9.128820 0.540704 -5.428347 -5.249993 14.187334 1.459159 2.785090 -2.944918 3.684744 -32.257979 -22.290939 35.254674 165.050401 69.715645 -161.989097 0.000000 0.000000 0.000000 
-0.411697 28.177563 0.342358 0.000000 0.000000 0.000000 0.981232 -61.258969 4.676833 -35.081173 7.959718 32.216339 46.213818 -10.963159 -10.537368 -12.453059 -1.344328 -13.470084 -0.103235 0.726870 1.232877 0.000000 0.000000 0.000000 -1.922965 -60.889354 3.311535 -28.215064 -5.776530 -36.351520 53.912794 8.366188 -5.088528 -28.714768 -3.548858 28.675258 4.007067 0.161535 -0.322197 0.000000 0.000000 0.000000 -0.958167 -61.125986 2.566473 12.228613 1.842636 -2.711238 7.859716 0.735711 -5.671031 -0.628860 -1.067541 1.636858 0.000000 0.000000 0.000000 7.718313 0.313506 -4.383745 -21.022130 20.559669 10.045691 3.817658 26.443393 -2.344306 0.000000 0.000000 0.000000 9.419766 0.283037 -4.985934 -5.188775 -16.031490 -1.568221 -0.460261 -5.060513 1.020454 -25.324089 9.264662 -33.804891 5.459546 -41.736994 1.628156 0.000000 0.000000 0.000000 8.722349 0.531854 -5.380937 -5.345343 14.072822 1.371326 4.036472 -2.522727 1.911930 -30.721699 -21.568476 35.183834 167.224928 66.495812 -164.170673 0.000000 0.000000 0.000000 
-0.616123 28.093616 0.421604 0.000000 0.000000 0.000000 0.030328 -61.218159 3.612663 -34.799343 8.108649 32.541203 47.470771 -11.772232 -10.374010 -14.196786 -1.212042 -13.551747 -0.705101 0.677283 1.643765 0.000000 0.000000 0.000000 -2.723016 -60.814905 2.216222 -26.526981 -5.834369 -36.382430 54.774087 8.569602 -5.356743 -29.684333 -4.043894 28.840665 4.047655 0.033638 -0.421623 0.000000 0.000000 0.000000 -1.856904 -60.971296 1.630091 12.004650 1.716468 -2.454362 7.467541 0.771719 -5.464788 -0.715193 -1.065206 2.003475 0.000000 0.000000 0.000000 7.259484 0.324015 -4.256319 -20.132684 19.539783 10.289541 3.736206 24.917773 -1.684912 0.000000 0.000000 0.000000 8.929410 0.332096 -4.749229 -5.130866 -14.876704 -1.060827 0.439723 -5.614350 0.508498 -25.275982 9.655797 -33.103946 6.663733 -44.343989 3.225491 0.000000 0.000000 0.000000 8.126422 0.494496 -5.128920 -5.400759 12.731789 0.517609 5.711081 -2.243600 0.776484 -25.290941 -20.028997 35.512414 163.264880 62.785585 -160.623523 0.000000 0.000000 0.000000 
-0.874807 28.054943 0.486433 0.000000 0.000000 0.000000 -1.550920 -61.302300 1.903342 -34.084635 7.912399 32.716022 48.622051 -12.565557 -10.192311 -16.048018 -0.845081 -13.175354 -1.335968 0.683953 1.931599 0.000000 0.000000 0.000000 -3.799974 -60.508796 0.740222 -23.704371 -6.182499 -36.358886 54.797330 8.742697 -5.623673 -30.597987 -4.777854 29.356238 3.291508 -0.228338 -0.515518 0.000000 0.000000 0.000000 -3.140845 -60.513646 0.150037 11.674553 1.660010 -2.103506 7.020247 0.835021 -5.048577 -0.062309 -0.461232 2.179441 0.000000 0.000000 0.000000 6.675677 0.372049 -3.973646 -18.440496 18.188177 10.459721 3.459906 23.205346 -0.778623 0.000000 0.000000 0.000000 8.239557 0.429043 -4.261303 -5.092076 -12.753859 -0.109280 0.775465 -5.531347 0.218921 -23.524399 11.023070 -30.544613 7.659979 -50.062664 5.063242 0.000000 0.000000 0.000000 7.394855 0.438919 -4.687976 -5.515087 10.190960 -0.960138 7.056580 -2.087830 0.026047 -17.496487 -18.167496 36.327000 155.602269 59.808968 -153.832034 0.000000 0.000000 0.000000 
-1.155118 28.129932 0.586197 0.000000 0.000000 0.000000 -3.496830 -61.368963 -0.181418 -32.759872 7.417656 32.580771 49.083601 -13.224854 -9.910026 -17.503681 -0.337733 -12.394720 -1.846900 0.731607 1.970690 0.000000 0.000000 0.000000 -5.050982 -59.947792 -0.867326 -19.726717 -7.000466 -36.111224 53.181895 8.577254 -5.638966 -31.135632 -5.646171 29.711821 2.659737 -0.557468 -0.544589 0.000000 0.000000 0.000000 -4.619786 -59.800184 -1.599315 11.248119 1.615402 -1.761961 6.496376 0.894350 -4.464507 1.106246 0.340964 2.030478 0.000000 0.000000 0.000000 6.019616 0.434808 -3.542056 -15.893309 16.809142 10.459783 3.176749 21.527081 0.114104 0.000000 0.000000 0.000000 7.421337 0.525371 -3.552581 -5.195977 -9.727817 1.096003 0.426287 -4.759835 -0.223594 -20.576080 13.622630 -26.242748 7.735742 -58.426135 6.382893 0.000000 0.000000 0.000000 6.502463 0.379188 -4.066627 -5.786726 6.630931 -2.876974 7.317521 -2.494903 0.066946 -9.241249 -16.208415 37.316527 145.440778 57.879098 -145.009287 0.000000 0.000000 0.000000 
-1.443609 28.370926 0.706751 0.000000 0.000000 0.000000 -5.457509 -61.092313 -2.249344 -30.985020 6.715206 32.160362 48.612393 -13.690908 -9.397457 -18.105117 0.151582 -11.451023 -1.984757 0.826153 1.706578 0.000000 0.000000 0.000000 -6.345095 -59.096955 -2.440819 -14.921564 -8.320500 -35.388791 49.474745 7.937883 -5.246619 -30.956781 -6.451553 29.663071 2.601836 -0.852721 -0.515388 0.000000 0.000000 0.000000 -6.009012 -58.750473 -3.248530 10.663729 1.507005 -1.505107 5.843646 0.897009 -3.791384 1.432247 1.026331 1.635482 0.000000 0.000000 0.000000 5.407693 0.487357 -3.011261 -12.518953 15.624428 10.178485 2.967565 20.028792 0.788373 0.000000 0.000000 0.000000 6.563300 0.598221 -2.715663 -5.518436 -6.014507 2.492248 -0.071924 -3.492904 -0.654953 -17.485460 17.665309 -20.512619 5.348730 -67.887333 5.452734 0.000000 0.000000 0.000000 5.518924 0.282823 -3.315179 -6.299145 2.206096 -5.069814 6.663022 -3.164304 0.396569 -2.209286 -14.485127 38.226055 134.460661 56.302161 -135.589200 0.000000 0.000000 0.000000 
-1.767341 28.774599 0.872875 0.000000 0.000000 0.000000 -7.129179 -60.353949 -4.042658 -29.000963 5.875569 31.637590 47.115123 -14.160205 -8.639485 -17.372180 0.444071 -10.839422 -1.851793 0.948667 1.174910 0.000000 0.000000 0.000000 -7.365067 -57.908687 -3.769303 -9.669317 -10.022364 -33.915673 43.779870 6.810874 -4.557274 -29.760036 -6.961389 29.230881 2.551662 -1.001835 -0.548822 0.000000 0.000000 0.000000 -7.054810 -57.369477 -4.531629 9.953416 1.297713 -1.314251 5.075779 0.835406 -3.094438 1.263714 0.826707 1.372549 0.000000 0.000000 0.000000 4.897763 0.499797 -2.428798 -8.526807 14.763389 9.569121 2.743521 18.746533 1.161137 0.000000 0.000000 0.000000 5.724624 0.613154 -1.846882 -6.009183 -1.973281 4.207686 -0.352711 -2.716007 -0.534535 -15.327629 23.279320 -13.737666 -3.264090 -76.375408 -1.765037 0.000000 0.000000 0.000000 4.549763 0.126848 -2.538903 -7.077743 -2.812123 -7.369684 5.693829 -3.643978 0.585661 3.221632 -13.247693 38.871354 124.902932 54.537090 -127.278335 0.000000 0.000000 0.000000 
-2.113148 29.291998 1.078888 0.000000 0.000000 0.000000 -8.237497 -59.196505 -5.385955 -27.273760 4.885391 31.188372 44.784481 -14.733386 -7.725376 -15.331121 0.468783 -10.839561 -1.867446 1.072604 0.556463 0.000000 0.000000 0.000000 -8.027349 -56.517517 -4.811567 -4.385864 -11.672485 -31.596035 36.884978 5.493937 -3.847620 -27.569719 -6.921609 28.675890 1.920558 -0.970389 -0.771942 0.000000 0.000000 0.000000 -7.730746 -55.820988 -5.413769 9.201358 1.018400 -1.129742 4.247830 0.740105 -2.426393 0.978733 -0.020925 0.913496 0.000000 0.000000 0.000000 4.484300 0.474445 -1.870636 -4.260656 14.217593 8.546408 2.224146 17.633356 1.273318 0.000000 0.000000 0.000000 4.969814 0.524453 -1.064812 -6.628227 2.008526 6.288775 -0.348539 -2.094362 0.137279 -14.909174 29.625683 -6.535158 -24.531973 -81.251807 -21.914585 0.000000 0.000000 0.000000 3.688705 -0.088864 -1.847183 -8.056691 -8.002859 -9.582956 5.034505 -3.854193 0.645273 7.418201 -12.592557 38.817215 118.015902 52.903640 -120.800898 0.000000 0.000000 0.000000 
-2.499998 29.842100 1.271084 0.000000 0.000000 0.000000 -8.755841 -57.800291 -6.221838 -26.223560 3.841215 30.854656 42.193500 -15.295737 -6.831387 -12.353802 0.258682 -11.047479 -2.189134 1.194246 -0.029920 0.000000 0.000000 0.000000 -8.223068 -54.879542 -5.487135 0.431817 -12.799416 -28.732635 30.091587 4.477794 -3.347330 -24.814755 -6.177877 28.111570 0.582950 -0.702372 -1.192311 0.000000 0.000000 0.000000 -8.017069 -54.102700 -5.912007 8.500775 0.785715 -0.876019 3.477502 0.670775 -1.828423 0.610263 -0.538656 0.549860 0.000000 0.000000 0.000000 4.207551 0.429105 -1.390431 -0.234415 13.773105 7.161487 1.041987 16.690428 1.289418 0.000000 0.000000 0.000000 4.358078 0.408960 -0.442664 -7.346580 5.809942 8.692505 -0.257360 -1.595264 1.027025 -16.504455 35.529920 0.555508 -45.178201 -81.778961 -41.766918 0.000000 0.000000 0.000000 3.084606 -0.310319 -1.280351 -9.075464 -12.857389 -11.359253 4.970706 -3.901730 0.127060 10.679885 -13.079161 38.046531 113.410776 52.098125 -115.483677 0.000000 0.000000 0.000000 
